<mxfile host="app.diagrams.net" modified="2021-08-22T16:55:25.799Z" agent="5.0 (Macintosh; Intel Mac OS X 10_15_7) AppleWebKit/537.36 (KHTML, like Gecko) Chrome/92.0.4515.131 Safari/537.36" etag="3MRd7lSyRv-7So6S9V-4" version="14.9.8" type="github">
  <diagram id="Siw_TYlSQqhXZrjCrece" name="Page-1">
    <mxGraphModel dx="1426" dy="794" grid="1" gridSize="10" guides="1" tooltips="1" connect="1" arrows="1" fold="1" page="1" pageScale="1" pageWidth="827" pageHeight="1169" math="0" shadow="0">
      <root>
        <mxCell id="0" />
        <mxCell id="1" parent="0" />
        <mxCell id="YHX8rzLhsFBbTCI5X96X-23" value="" style="rounded=1;whiteSpace=wrap;html=1;" parent="1" vertex="1">
          <mxGeometry x="210" y="140" width="610" height="200" as="geometry" />
        </mxCell>
        <mxCell id="YHX8rzLhsFBbTCI5X96X-3" style="edgeStyle=orthogonalEdgeStyle;rounded=0;orthogonalLoop=1;jettySize=auto;html=1;entryX=0.18;entryY=0.48;entryDx=0;entryDy=0;entryPerimeter=0;" parent="1" source="YHX8rzLhsFBbTCI5X96X-1" target="YHX8rzLhsFBbTCI5X96X-2" edge="1">
          <mxGeometry relative="1" as="geometry" />
        </mxCell>
        <mxCell id="YHX8rzLhsFBbTCI5X96X-11" value="Push code" style="edgeLabel;html=1;align=center;verticalAlign=middle;resizable=0;points=[];" parent="YHX8rzLhsFBbTCI5X96X-3" vertex="1" connectable="0">
          <mxGeometry x="-0.2658" y="-1" relative="1" as="geometry">
            <mxPoint as="offset" />
          </mxGeometry>
        </mxCell>
        <mxCell id="YHX8rzLhsFBbTCI5X96X-1" value="" style="html=1;dashed=0;whitespace=wrap;fillColor=#2875E2;strokeColor=#ffffff;points=[[0.005,0.63,0],[0.1,0.2,0],[0.9,0.2,0],[0.5,0,0],[0.995,0.63,0],[0.72,0.99,0],[0.5,1,0],[0.28,0.99,0]];shape=mxgraph.kubernetes.icon;prIcon=user" parent="1" vertex="1">
          <mxGeometry x="30" y="208" width="50" height="48" as="geometry" />
        </mxCell>
        <mxCell id="YHX8rzLhsFBbTCI5X96X-5" value="Triggers build" style="edgeStyle=orthogonalEdgeStyle;rounded=0;orthogonalLoop=1;jettySize=auto;html=1;entryX=0;entryY=0.5;entryDx=0;entryDy=0;" parent="1" source="YHX8rzLhsFBbTCI5X96X-2" target="YHX8rzLhsFBbTCI5X96X-4" edge="1">
          <mxGeometry relative="1" as="geometry">
            <mxPoint x="330" y="233" as="targetPoint" />
          </mxGeometry>
        </mxCell>
        <mxCell id="YHX8rzLhsFBbTCI5X96X-2" value="" style="verticalLabelPosition=bottom;html=1;verticalAlign=top;align=center;strokeColor=none;fillColor=#00BEF2;shape=mxgraph.azure.github_code;pointerEvents=1;" parent="1" vertex="1">
          <mxGeometry x="150" y="208" width="50" height="50" as="geometry" />
        </mxCell>
        <mxCell id="YHX8rzLhsFBbTCI5X96X-10" style="edgeStyle=orthogonalEdgeStyle;rounded=0;orthogonalLoop=1;jettySize=auto;html=1;" parent="1" source="YHX8rzLhsFBbTCI5X96X-4" target="YHX8rzLhsFBbTCI5X96X-8" edge="1">
          <mxGeometry relative="1" as="geometry" />
        </mxCell>
        <mxCell id="YHX8rzLhsFBbTCI5X96X-12" value="Push images" style="edgeLabel;html=1;align=center;verticalAlign=middle;resizable=0;points=[];" parent="YHX8rzLhsFBbTCI5X96X-10" vertex="1" connectable="0">
          <mxGeometry x="-0.2553" y="-1" relative="1" as="geometry">
            <mxPoint x="9" y="-1" as="offset" />
          </mxGeometry>
        </mxCell>
        <mxCell id="YHX8rzLhsFBbTCI5X96X-4" value="" style="shape=image;html=1;verticalAlign=top;verticalLabelPosition=bottom;labelBackgroundColor=#ffffff;imageAspect=0;aspect=fixed;image=https://cdn4.iconfinder.com/data/icons/logos-brands-5/24/jenkins-128.png" parent="1" vertex="1">
          <mxGeometry x="291" y="200" width="60" height="60" as="geometry" />
        </mxCell>
        <mxCell id="YHX8rzLhsFBbTCI5X96X-13" style="edgeStyle=orthogonalEdgeStyle;rounded=0;orthogonalLoop=1;jettySize=auto;html=1;" parent="1" source="YHX8rzLhsFBbTCI5X96X-8" target="YHX8rzLhsFBbTCI5X96X-14" edge="1">
          <mxGeometry relative="1" as="geometry">
            <mxPoint x="590" y="232" as="targetPoint" />
            <Array as="points">
              <mxPoint x="520" y="233" />
              <mxPoint x="520" y="233" />
            </Array>
          </mxGeometry>
        </mxCell>
        <mxCell id="YHX8rzLhsFBbTCI5X96X-17" value="Triggers ELK&lt;br&gt;build job" style="edgeLabel;html=1;align=center;verticalAlign=middle;resizable=0;points=[];" parent="YHX8rzLhsFBbTCI5X96X-13" vertex="1" connectable="0">
          <mxGeometry x="-0.1143" relative="1" as="geometry">
            <mxPoint as="offset" />
          </mxGeometry>
        </mxCell>
        <mxCell id="YHX8rzLhsFBbTCI5X96X-8" value="Docker Hub" style="aspect=fixed;html=1;points=[];align=center;image;fontSize=12;image=img/lib/mscae/Docker.svg;" parent="1" vertex="1">
          <mxGeometry x="448" y="212.5" width="50" height="41" as="geometry" />
        </mxCell>
        <mxCell id="YHX8rzLhsFBbTCI5X96X-19" value="trigger ELK &lt;br&gt;stack" style="edgeStyle=orthogonalEdgeStyle;rounded=0;orthogonalLoop=1;jettySize=auto;html=1;" parent="1" source="YHX8rzLhsFBbTCI5X96X-14" target="YHX8rzLhsFBbTCI5X96X-18" edge="1">
          <mxGeometry x="-0.0169" relative="1" as="geometry">
            <mxPoint x="720" y="233" as="targetPoint" />
            <mxPoint as="offset" />
          </mxGeometry>
        </mxCell>
        <mxCell id="YHX8rzLhsFBbTCI5X96X-14" value="" style="shape=image;html=1;verticalAlign=top;verticalLabelPosition=bottom;labelBackgroundColor=#ffffff;imageAspect=0;aspect=fixed;image=https://cdn4.iconfinder.com/data/icons/logos-brands-5/24/jenkins-128.png" parent="1" vertex="1">
          <mxGeometry x="580" y="203" width="60" height="60" as="geometry" />
        </mxCell>
        <mxCell id="YHX8rzLhsFBbTCI5X96X-18" value="" style="shape=image;html=1;verticalAlign=top;verticalLabelPosition=bottom;labelBackgroundColor=#ffffff;imageAspect=0;aspect=fixed;image=https://cdn4.iconfinder.com/data/icons/logos-brands-5/24/elasticsearch-128.png" parent="1" vertex="1">
          <mxGeometry x="740" y="197" width="72" height="72" as="geometry" />
        </mxCell>
        <mxCell id="YHX8rzLhsFBbTCI5X96X-24" value="Provisioned by Ansible" style="text;html=1;align=center;verticalAlign=middle;resizable=0;points=[];autosize=1;strokeColor=none;" parent="1" vertex="1">
          <mxGeometry x="650" y="120" width="140" height="20" as="geometry" />
        </mxCell>
      </root>
    </mxGraphModel>
  </diagram>
</mxfile>
